<?xml version="1.0" standalone="no"?>
<!DOCTYPE svg PUBLIC "-//W3C//DTD SVG 20010904//EN"
 "http://www.w3.org/TR/2001/REC-SVG-20010904/DTD/svg10.dtd">
<svg version="1.0" xmlns="http://www.w3.org/2000/svg"
 width="700.000000pt" height="700.000000pt" viewBox="0 0 700.000000 700.000000"
 preserveAspectRatio="xMidYMid meet">
<metadata>
Created by potrace 1.14, written by Peter Selinger 2001-2017
</metadata>
<g transform="translate(0.000000,700.000000) scale(0.100000,-0.100000)"
fill="#000000" stroke="none">
<path d="M1036 6978 c-13 -22 -177 -296 -207 -347 -8 -14 -17 -30 -22 -35 -23
-32 -767 -1280 -767 -1288 0 -4 -3 -8 -8 -8 -32 0 -32 -28 -30 -2546 l3 -2489
26 -56 c37 -79 90 -133 167 -171 l67 -33 3235 0 3235 0 66 32 c77 38 130 93
167 171 l27 57 3 2492 2 2492 -386 643 c-212 354 -390 650 -395 658 -5 8 -67
112 -138 230 l-129 215 -2451 3 -2451 2 -14 -22z m4980 -1108 c200 -333 364
-608 364 -612 0 -5 -1296 -8 -2881 -8 -2494 0 -2880 2 -2876 14 3 8 72 124
153 258 81 134 152 252 158 263 6 11 74 125 151 253 77 128 150 249 162 270
13 20 39 65 58 99 20 34 43 63 52 65 9 2 979 3 2156 3 l2140 0 363 -605z
m-4163 -1604 c55 -24 112 -80 135 -134 14 -34 22 -80 26 -162 3 -63 11 -140
16 -170 5 -30 12 -68 14 -85 16 -95 85 -279 146 -393 39 -71 115 -190 129
-202 4 -3 17 -18 30 -35 73 -96 232 -238 343 -307 30 -18 63 -38 74 -45 68
-42 185 -93 289 -126 241 -75 471 -88 735 -40 378 68 746 320 967 663 67 105
160 315 178 403 2 10 6 26 9 35 3 9 7 28 10 42 6 38 15 91 21 125 3 17 8 80
11 140 4 78 12 124 26 157 23 53 82 112 135 134 129 54 288 -9 343 -138 21
-49 22 -62 17 -193 -6 -148 -7 -153 -37 -310 -136 -704 -660 -1290 -1355
-1517 -64 -21 -211 -57 -260 -65 -16 -2 -41 -6 -55 -8 -124 -19 -345 -25 -500
-12 -165 14 -406 73 -563 139 -150 63 -435 230 -482 282 -5 6 -32 29 -60 51
-196 157 -417 448 -524 690 -37 82 -97 243 -106 284 -3 9 -11 43 -19 77 -37
151 -52 266 -55 413 -3 145 15 198 87 262 74 65 185 83 275 45z"/>
</g>
</svg>
